name rise30.8019peak61.5557fall86.2505.mot
datacolumns 19
datarows 24
range 6.35498400000000 6.39331100000000
endheader
time	ground_force1_vx	ground_force1_vy	ground_force1_vz	ground_force1_px	ground_force1_py	ground_force1_pz	ground_force2_vx	ground_force2_vy	ground_force2_vz	ground_force2_px	ground_force2_py	ground_force2_pz	ground_torque1_x	ground_torque1_y	ground_torque1_z	ground_torque2_x	ground_torque2_y	ground_torque2_z	
6.35498400000000	47.77636500000000	731.62596499999995	45.68701900000000	0.24355100000000	0.00000000000000	0.10949300000000	0.00000000000000	0.00000000000000	0.00000000000000	0.00000000000000	0.00000000000000	0.00000000000000	0.00000000000000	11.07765200000000	0.00000000000000	0.00000000000000	0.00000000000000	0.00000000000000	
6.35664400000000	47.33101400000000	733.65503300000000	45.89414700000000	0.24269600000000	0.00000000000000	0.10950400000000	0.00000000000000	0.00000000000000	0.00000000000000	0.00000000000000	0.00000000000000	0.00000000000000	0.00000000000000	11.16912200000000	0.00000000000000	0.00000000000000	0.00000000000000	0.00000000000000	
6.35831600000000	46.88614500000000	735.57892800000002	46.09544900000000	0.24183500000000	0.00000000000000	0.10951600000000	0.00000000000000	0.00000000000000	0.00000000000000	0.00000000000000	0.00000000000000	0.00000000000000	0.00000000000000	11.25776100000000	0.00000000000000	0.00000000000000	0.00000000000000	0.00000000000000	
6.35998400000000	46.44130800000000	737.39558199999999	46.29026200000000	0.24096700000000	0.00000000000000	0.10952900000000	0.00000000000000	0.00000000000000	0.00000000000000	0.00000000000000	0.00000000000000	0.00000000000000	0.00000000000000	11.34330300000000	0.00000000000000	0.00000000000000	0.00000000000000	0.00000000000000	
6.36164300000000	45.99604900000000	739.10307100000000	46.47791700000000	0.24008900000000	0.00000000000000	0.10954300000000	0.00000000000000	0.00000000000000	0.00000000000000	0.00000000000000	0.00000000000000	0.00000000000000	0.00000000000000	11.42548700000000	0.00000000000000	0.00000000000000	0.00000000000000	0.00000000000000	
6.36330800000000	45.54991700000000	740.69962599999997	46.65774700000000	0.23920200000000	0.00000000000000	0.10955700000000	0.00000000000000	0.00000000000000	0.00000000000000	0.00000000000000	0.00000000000000	0.00000000000000	0.00000000000000	11.50405700000000	0.00000000000000	0.00000000000000	0.00000000000000	0.00000000000000	
6.36497600000000	45.10246700000000	742.18364399999996	46.82908900000000	0.23830200000000	0.00000000000000	0.10957200000000	0.00000000000000	0.00000000000000	0.00000000000000	0.00000000000000	0.00000000000000	0.00000000000000	0.00000000000000	11.57876100000000	0.00000000000000	0.00000000000000	0.00000000000000	0.00000000000000	
6.36665000000000	44.65326400000000	743.55369800000005	46.99129300000000	0.23739100000000	0.00000000000000	0.10958800000000	0.00000000000000	0.00000000000000	0.00000000000000	0.00000000000000	0.00000000000000	0.00000000000000	0.00000000000000	11.64935800000000	0.00000000000000	0.00000000000000	0.00000000000000	0.00000000000000	
6.36831100000000	44.20189000000000	744.80854399999998	47.14372200000000	0.23646500000000	0.00000000000000	0.10960400000000	0.00000000000000	0.00000000000000	0.00000000000000	0.00000000000000	0.00000000000000	0.00000000000000	0.00000000000000	11.71561600000000	0.00000000000000	0.00000000000000	0.00000000000000	0.00000000000000	
6.36997500000000	43.74794700000000	745.94713200000001	47.28575700000000	0.23552500000000	0.00000000000000	0.10962100000000	0.00000000000000	0.00000000000000	0.00000000000000	0.00000000000000	0.00000000000000	0.00000000000000	0.00000000000000	11.77731600000000	0.00000000000000	0.00000000000000	0.00000000000000	0.00000000000000	
6.37165000000000	43.29105900000000	746.96861200000001	47.41680500000000	0.23456900000000	0.00000000000000	0.10963900000000	0.00000000000000	0.00000000000000	0.00000000000000	0.00000000000000	0.00000000000000	0.00000000000000	0.00000000000000	11.83425100000000	0.00000000000000	0.00000000000000	0.00000000000000	0.00000000000000	
6.37331700000000	42.83087700000000	747.87234100000001	47.53629900000000	0.23359700000000	0.00000000000000	0.10965700000000	0.00000000000000	0.00000000000000	0.00000000000000	0.00000000000000	0.00000000000000	0.00000000000000	0.00000000000000	11.88623000000000	0.00000000000000	0.00000000000000	0.00000000000000	0.00000000000000	
6.37497500000000	42.36708400000000	748.65788799999996	47.64370300000000	0.23260900000000	0.00000000000000	0.10967600000000	0.00000000000000	0.00000000000000	0.00000000000000	0.00000000000000	0.00000000000000	0.00000000000000	0.00000000000000	11.93307800000000	0.00000000000000	0.00000000000000	0.00000000000000	0.00000000000000	
6.37664400000000	41.89939400000000	749.32503799999995	47.73851600000000	0.23160300000000	0.00000000000000	0.10969500000000	0.00000000000000	0.00000000000000	0.00000000000000	0.00000000000000	0.00000000000000	0.00000000000000	0.00000000000000	11.97463800000000	0.00000000000000	0.00000000000000	0.00000000000000	0.00000000000000	
6.37831000000000	41.42756000000000	749.87379799999997	47.82027500000000	0.23057900000000	0.00000000000000	0.10971400000000	0.00000000000000	0.00000000000000	0.00000000000000	0.00000000000000	0.00000000000000	0.00000000000000	0.00000000000000	12.01077300000000	0.00000000000000	0.00000000000000	0.00000000000000	0.00000000000000	
6.37997600000000	40.95137000000000	750.30439500000000	47.88856000000000	0.22953700000000	0.00000000000000	0.10973400000000	0.00000000000000	0.00000000000000	0.00000000000000	0.00000000000000	0.00000000000000	0.00000000000000	0.00000000000000	12.04136300000000	0.00000000000000	0.00000000000000	0.00000000000000	0.00000000000000	
6.38164500000000	40.47065300000000	750.61728400000004	47.94299200000000	0.22847700000000	0.00000000000000	0.10975400000000	0.00000000000000	0.00000000000000	0.00000000000000	0.00000000000000	0.00000000000000	0.00000000000000	0.00000000000000	12.06631300000000	0.00000000000000	0.00000000000000	0.00000000000000	0.00000000000000	
6.38331300000000	39.98528100000000	750.81314299999997	47.98324100000000	0.22739900000000	0.00000000000000	0.10977500000000	0.00000000000000	0.00000000000000	0.00000000000000	0.00000000000000	0.00000000000000	0.00000000000000	0.00000000000000	12.08554600000000	0.00000000000000	0.00000000000000	0.00000000000000	0.00000000000000	
6.38497600000000	39.49516700000000	750.89287700000000	48.00902700000000	0.22630300000000	0.00000000000000	0.10979600000000	0.00000000000000	0.00000000000000	0.00000000000000	0.00000000000000	0.00000000000000	0.00000000000000	0.00000000000000	12.09900900000000	0.00000000000000	0.00000000000000	0.00000000000000	0.00000000000000	
6.38664600000000	39.00026900000000	750.85761600000001	48.02011800000000	0.22518800000000	0.00000000000000	0.10981700000000	0.00000000000000	0.00000000000000	0.00000000000000	0.00000000000000	0.00000000000000	0.00000000000000	0.00000000000000	12.10667000000000	0.00000000000000	0.00000000000000	0.00000000000000	0.00000000000000	
6.38831600000000	38.50058900000000	750.70871299999999	48.01633500000000	0.22405600000000	0.00000000000000	0.10983800000000	0.00000000000000	0.00000000000000	0.00000000000000	0.00000000000000	0.00000000000000	0.00000000000000	0.00000000000000	12.10852000000000	0.00000000000000	0.00000000000000	0.00000000000000	0.00000000000000	
6.38998300000000	37.99617300000000	750.44773899999996	47.99755500000000	0.22290700000000	0.00000000000000	0.10985900000000	0.00000000000000	0.00000000000000	0.00000000000000	0.00000000000000	0.00000000000000	0.00000000000000	0.00000000000000	12.10457300000000	0.00000000000000	0.00000000000000	0.00000000000000	0.00000000000000	
6.39164500000000	37.48711200000000	750.07648600000005	47.96370700000000	0.22174100000000	0.00000000000000	0.10988000000000	0.00000000000000	0.00000000000000	0.00000000000000	0.00000000000000	0.00000000000000	0.00000000000000	0.00000000000000	12.09486600000000	0.00000000000000	0.00000000000000	0.00000000000000	0.00000000000000	
6.39331100000000	36.97354000000000	749.59695399999998	47.91477700000000	0.22056000000000	0.00000000000000	0.10990100000000	0.00000000000000	0.00000000000000	0.00000000000000	0.00000000000000	0.00000000000000	0.00000000000000	0.00000000000000	12.07945800000000	0.00000000000000	0.00000000000000	0.00000000000000	0.00000000000000	
